<svg width="20" height="20" viewBox="0 0 20 20" fill="none" xmlns="http://www.w3.org/2000/svg">
<path d="M10 2.36301L13 4.00001M10 2.36301C7 0.732012 1 -0.769987 1 6.27701C1 11.769 2.188 16.033 4.005 18.418C4.65 19.265 6.221 19.002 6.893 18.153C6.96739 18.0532 7.02607 17.9426 7.067 17.825L8.13 15.025C8.784 13.305 11.216 13.305 11.87 15.025L12.933 17.825C12.978 17.941 13.03 18.055 13.107 18.153C13.779 19.003 15.35 19.265 15.995 18.418C17.812 16.033 19 11.77 19 6.27701C19 -0.768987 13 0.732012 10 2.36301V2.36301Z" stroke="white" stroke-width="2" stroke-linecap="round" stroke-linejoin="round"/>
</svg>
