<svg width="55" height="55" viewBox="0 0 55 55" fill="none" xmlns="http://www.w3.org/2000/svg">
<g id="ic:baseline-whatsapp">
<path id="Vector" d="M43.6563 11.2521C41.5553 9.12982 39.0528 7.44715 36.2947 6.30219C33.5365 5.15724 30.5781 4.57292 27.5917 4.58333C15.0792 4.58333 4.88133 14.7812 4.88133 27.2937C4.88133 31.3042 5.9355 35.2 7.90633 38.6375L4.698 50.4167L16.7292 47.2542C20.0522 49.0646 23.7876 50.0271 27.5917 50.0271C40.1042 50.0271 50.3022 39.8292 50.3022 27.3167C50.3022 21.2437 47.9417 15.5375 43.6563 11.2521ZM27.5917 46.1771C24.2001 46.1771 20.8772 45.2604 17.9667 43.5417L17.2792 43.1292L10.1292 45.0083L12.0313 38.0417L11.573 37.3312C9.68867 34.3222 8.68811 30.8441 8.6855 27.2937C8.6855 16.8896 17.1647 8.41041 27.5688 8.41041C32.6105 8.41041 37.3542 10.3812 40.9063 13.9562C42.6651 15.707 44.059 17.7894 45.007 20.0828C45.9551 22.3763 46.4385 24.835 46.4293 27.3167C46.4751 37.7208 37.9959 46.1771 27.5917 46.1771ZM37.9501 32.0604C37.3772 31.7854 34.5813 30.4104 34.0772 30.2042C33.5501 30.0208 33.1834 29.9292 32.7938 30.4792C32.4042 31.0521 31.3272 32.3354 31.0063 32.7021C30.6855 33.0917 30.3417 33.1375 29.7688 32.8396C29.1959 32.5646 27.3626 31.9458 25.2084 30.0208C23.5126 28.5083 22.3897 26.6521 22.0459 26.0792C21.7251 25.5062 22.0001 25.2083 22.298 24.9104C22.5501 24.6583 22.8709 24.2458 23.1459 23.925C23.4209 23.6042 23.5355 23.3521 23.7188 22.9854C23.9022 22.5958 23.8105 22.275 23.673 22C23.5355 21.725 22.3897 18.9292 21.9313 17.7833C21.473 16.6833 20.9917 16.8208 20.648 16.7979H19.548C19.1584 16.7979 18.5626 16.9354 18.0355 17.5083C17.5313 18.0812 16.0647 19.4562 16.0647 22.2521C16.0647 25.0479 18.1042 27.7521 18.3792 28.1187C18.6542 28.5083 22.3897 34.2375 28.073 36.6896C29.4251 37.2854 30.4792 37.6292 31.3042 37.8812C32.6563 38.3167 33.8938 38.2479 34.8792 38.1104C35.9792 37.95 38.248 36.7354 38.7063 35.4062C39.1876 34.0771 39.1876 32.9542 39.0272 32.7021C38.8667 32.45 38.523 32.3354 37.9501 32.0604Z" fill="white"/>
</g>
</svg>
